<svg xmlns="http://www.w3.org/2000/svg" viewBox="0 0 83.27 43.84">
  <title>logo</title>
  <g>
    <path d="M438.41-20.92l-.34-.15-1.31-.55-.06,0c-.56-.25-1.1-.51-1.62-.78a23.47,23.47,0,0,1-7.31-5.46,12,12,0,0,1-1.9-2.85,8.25,8.25,0,0,1-.61-3.54v-21h28.83v21a8.26,8.26,0,0,1-.61,3.54,12,12,0,0,1-1.9,2.85,23.46,23.46,0,0,1-7.31,5.46c-.52.27-1.07.53-1.62.78l-.06,0-1.3.55-.34.15-1.26.48Z" transform="translate(-425.26 55.3)" style="fill: #bc9b6a"/>
    <g>
      <path d="M438.76-21.78l-.32-.14-1.31-.56,0,0c-.54-.25-1.08-.5-1.58-.76a22.57,22.57,0,0,1-7-5.24,11.1,11.1,0,0,1-1.76-2.63,7.44,7.44,0,0,1-.53-3.15v-20.1h27v20.1a7.44,7.44,0,0,1-.53,3.15,11.09,11.09,0,0,1-1.76,2.63,22.57,22.57,0,0,1-7,5.24c-.51.26-1,.51-1.58.76l0,0-1.31.56-.32.14-.92.35Z" transform="translate(-425.26 55.3)" style="fill: #fff"/>
      <path d="M439.46-23.51v-29H428v18.25a5.73,5.73,0,0,0,.36,2.38,9.51,9.51,0,0,0,1.48,2.19,21,21,0,0,0,6.47,4.79q.74.38,1.5.72l1.61.68" transform="translate(-425.26 55.3)" style="fill: #1e3c8d"/>
      <path d="M439.9-23.5v-29h11.41v18.25a5.72,5.72,0,0,1-.36,2.38,9.49,9.49,0,0,1-1.48,2.19A21,21,0,0,1,443-24.91q-.74.38-1.5.72l-1.61.68" transform="translate(-425.26 55.3)" style="fill: #1e3c8d"/>
      <path d="M431.81-45.12a41.17,41.17,0,0,0,1.8,3.84l-.31.74A27.46,27.46,0,0,0,431-44.69s.72-.39.82-.43" transform="translate(-425.26 55.3)" style="fill: #fff"/>
      <path d="M434.4-51.72s0,.29,0,.26h-.23v.16a.36.36,0,0,1,.2.32.36.36,0,0,1-.36.36.36.36,0,0,1-.36-.36.36.36,0,0,1,.2-.32v-.16h-.23v-.26h.23v-.2h.31v.2Z" transform="translate(-425.26 55.3)" style="fill: #fff"/>
      <path d="M434-48a4.55,4.55,0,0,0-1.91.22l0-.22a8.77,8.77,0,0,1,1.94-.13" transform="translate(-425.26 55.3)" style="fill: #fff"/>
      <path d="M434-47.35c-.3,0-1.83.15-1.83.15l0-.25,1.86,0" transform="translate(-425.26 55.3)" style="fill: #fff"/>
      <path d="M434-48a4.55,4.55,0,0,1,1.91.22l0-.22a8.77,8.77,0,0,0-1.94-.13" transform="translate(-425.26 55.3)" style="fill: #fff"/>
      <path d="M434-47.35c.3,0,1.83.15,1.83.15l0-.25-1.86,0" transform="translate(-425.26 55.3)" style="fill: #fff"/>
      <path d="M431.87-49.61a.08.08,0,0,1-.08.08h-.21a.08.08,0,0,1-.08-.08.08.08,0,0,1,.08-.08h.21a.08.08,0,0,1,.08.08" transform="translate(-425.26 55.3)" style="fill: #fff"/>
      <path d="M431.71-50a.08.08,0,0,1-.08.08h-.21a.08.08,0,0,1-.08-.08.08.08,0,0,1,.08-.08h.21a.08.08,0,0,1,.08.08" transform="translate(-425.26 55.3)" style="fill: #fff"/>
      <path d="M431.72-50.37a.08.08,0,0,1-.09.06l-.21,0a.08.08,0,0,1-.06-.09.08.08,0,0,1,.09-.06l.21,0a.08.08,0,0,1,.06.09" transform="translate(-425.26 55.3)" style="fill: #fff"/>
      <path d="M431.9-50.68a.08.08,0,0,1-.1,0l-.19-.09a.08.08,0,0,1,0-.1.08.08,0,0,1,.1,0l.19.09a.08.08,0,0,1,0,.1" transform="translate(-425.26 55.3)" style="fill: #fff"/>
      <path d="M432.11-50.84a.08.08,0,0,1-.11,0l-.11-.19a.08.08,0,0,1,0-.11.08.08,0,0,1,.11,0l.11.19a.08.08,0,0,1,0,.11" transform="translate(-425.26 55.3)" style="fill: #fff"/>
      <path d="M432.38-50.89a.08.08,0,0,1-.08-.07v-.21a.08.08,0,0,1,.07-.08.08.08,0,0,1,.08.07V-51a.08.08,0,0,1-.07.08" transform="translate(-425.26 55.3)" style="fill: #fff"/>
      <path d="M432.7-50.88a.08.08,0,0,1-.07-.09l0-.21a.08.08,0,0,1,.09-.07.08.08,0,0,1,.07.09l0,.21a.08.08,0,0,1-.09.07" transform="translate(-425.26 55.3)" style="fill: #fff"/>
      <path d="M433-50.77a.08.08,0,0,1-.05-.1l.06-.2a.08.08,0,0,1,.1-.05.08.08,0,0,1,.05.1l-.06.2a.08.08,0,0,1-.1.05" transform="translate(-425.26 55.3)" style="fill: #fff"/>
      <path d="M433.32-50.56a.08.08,0,0,1,0-.1l.08-.2a.08.08,0,0,1,.1,0,.08.08,0,0,1,0,.1l-.08.2a.08.08,0,0,1-.1,0" transform="translate(-425.26 55.3)" style="fill: #fff"/>
      <path d="M433.61-50.27a.08.08,0,0,1,0-.1l.1-.19a.08.08,0,0,1,.1,0,.08.08,0,0,1,0,.1l-.1.19a.08.08,0,0,1-.1,0" transform="translate(-425.26 55.3)" style="fill: #fff"/>
      <path d="M434-49.68a.18.18,0,0,1-.19-.23v-.34c-.07-.42-1-.79-1.4-.79a.87.87,0,0,0-.87.87.85.85,0,0,0,.21.57,4.35,4.35,0,0,1,.1.61v.19H432l0,.21s.06-.1.13-.1v-.1h.21v-.41a.09.09,0,0,0-.09.09h-.21v-.27l0,0a.06.06,0,0,0,.08-.07.11.11,0,0,0-.08-.11.65.65,0,0,1-.42-.6.65.65,0,0,1,.65-.65,1.56,1.56,0,0,1,1.32.78v.45s.12,0,.12.06h.44c0-.08.12-.06.12-.06V-50a1.56,1.56,0,0,1,1.32-.78.65.65,0,0,1,.65.65.65.65,0,0,1-.42.6.11.11,0,0,0-.08.11.06.06,0,0,0,.08.07l0,0v.27h-.21a.09.09,0,0,0-.09-.09v.41h.21v.1c.07,0,.13.1.13.1l0-.21h.15V-49a4.35,4.35,0,0,1,.1-.61.85.85,0,0,0,.22-.57.87.87,0,0,0-.87-.87c-.43,0-1.34.38-1.4.79v.34a.18.18,0,0,1-.19.23" transform="translate(-425.26 55.3)" style="fill: #fff"/>
      <path d="M436.19-49.61a.08.08,0,0,0,.08.08h.21a.08.08,0,0,0,.08-.08.08.08,0,0,0-.08-.08h-.21a.08.08,0,0,0-.08.08" transform="translate(-425.26 55.3)" style="fill: #fff"/>
      <path d="M436.35-50a.08.08,0,0,0,.08.08h.21a.08.08,0,0,0,.08-.08.08.08,0,0,0-.08-.08h-.21a.08.08,0,0,0-.08.08" transform="translate(-425.26 55.3)" style="fill: #fff"/>
      <path d="M436.34-50.37a.08.08,0,0,0,.09.06l.21,0a.08.08,0,0,0,.06-.09.08.08,0,0,0-.09-.06l-.21,0a.08.08,0,0,0-.06.09" transform="translate(-425.26 55.3)" style="fill: #fff"/>
      <path d="M436.15-50.68a.08.08,0,0,0,.1,0l.19-.09a.08.08,0,0,0,0-.1.08.08,0,0,0-.1,0l-.19.09a.08.08,0,0,0,0,.1" transform="translate(-425.26 55.3)" style="fill: #fff"/>
      <path d="M435.94-50.84a.08.08,0,0,0,.11,0l.11-.19a.08.08,0,0,0,0-.11.08.08,0,0,0-.11,0l-.11.19a.08.08,0,0,0,0,.11" transform="translate(-425.26 55.3)" style="fill: #fff"/>
      <path d="M435.68-50.89a.08.08,0,0,0,.08-.07v-.21a.08.08,0,0,0-.07-.08.08.08,0,0,0-.08.07V-51a.08.08,0,0,0,.07.08" transform="translate(-425.26 55.3)" style="fill: #fff"/>
      <path d="M435.35-50.88a.08.08,0,0,0,.07-.09l0-.21a.08.08,0,0,0-.09-.07.08.08,0,0,0-.07.09l0,.21a.08.08,0,0,0,.09.07" transform="translate(-425.26 55.3)" style="fill: #fff"/>
      <path d="M435.05-50.77a.08.08,0,0,0,.05-.1l-.06-.2a.08.08,0,0,0-.1-.05.08.08,0,0,0-.05.1l.06.2a.08.08,0,0,0,.1.05" transform="translate(-425.26 55.3)" style="fill: #fff"/>
      <path d="M434.73-50.56a.08.08,0,0,0,0-.1l-.08-.2a.08.08,0,0,0-.1,0,.08.08,0,0,0,0,.1l.08.2a.08.08,0,0,0,.1,0" transform="translate(-425.26 55.3)" style="fill: #fff"/>
      <path d="M434.45-50.27a.08.08,0,0,0,0-.1l-.1-.19a.08.08,0,0,0-.1,0,.08.08,0,0,0,0,.1l.1.19a.08.08,0,0,0,.11,0" transform="translate(-425.26 55.3)" style="fill: #fff"/>
      <path d="M433.82-47.77A.19.19,0,0,1,434-48a.19.19,0,0,1,.19.19.19.19,0,0,1-.19.19.19.19,0,0,1-.19-.19" transform="translate(-425.26 55.3)" style="fill: #fff"/>
      <path d="M434.59-47.73a.15.15,0,0,1,.15-.15.15.15,0,0,1,.15.15.15.15,0,0,1-.15.15.15.15,0,0,1-.15-.15" transform="translate(-425.26 55.3)" style="fill: #fff"/>
      <path d="M433.15-47.73a.15.15,0,0,1,.15-.15.15.15,0,0,1,.15.15.15.15,0,0,1-.15.15.15.15,0,0,1-.15-.15" transform="translate(-425.26 55.3)" style="fill: #fff"/>
      <path d="M435.26-47.69a.1.1,0,0,1,.1-.1.1.1,0,0,1,.1.1.1.1,0,0,1-.1.1.1.1,0,0,1-.1-.1" transform="translate(-425.26 55.3)" style="fill: #fff"/>
      <path d="M432.57-47.69a.1.1,0,0,1,.1-.1.1.1,0,0,1,.1.1.1.1,0,0,1-.1.1.1.1,0,0,1-.1-.1" transform="translate(-425.26 55.3)" style="fill: #fff"/>
      <path d="M430.63-46.74a1.1,1.1,0,0,1-.4.42,2.44,2.44,0,0,1-.34.19h.05a1.13,1.13,0,0,1,.52.26.76.76,0,0,1,.16.35.83.83,0,0,1-.19.73.6.6,0,0,1-.15.11.47.47,0,0,1-.72-.39.37.37,0,0,1,.37-.39c.09,0,.14.07.19.15a.2.2,0,0,1,0,.27.28.28,0,0,1-.23,0s-.12,0-.12-.07a.25.25,0,0,0,.18.26.34.34,0,0,0,.4-.23.44.44,0,0,0-.34-.59,1.65,1.65,0,0,1-.67-.18,1.16,1.16,0,0,1-.47-.64,1.77,1.77,0,0,1-.08-.53,1.47,1.47,0,0,1,1.47-1.47A1.47,1.47,0,0,1,431.7-47a1.47,1.47,0,0,1-.08.46c0,.15-.15.27-.19.43a1.07,1.07,0,0,0,0,.25.46.46,0,0,0,.32.5l-.83.43c0-.18,0-.38,0-.56s0-.28,0-.42a1.13,1.13,0,0,1,0-.27l0-.08c0-.06.06-.11.1-.17a1.18,1.18,0,0,0,.18-.58,1,1,0,0,0-.95-.95,1,1,0,0,0-.95.95.8.8,0,0,0,.28.63.51.51,0,0,0,.62-.27c.19.08.24-.42.27-.39" transform="translate(-425.26 55.3)" style="fill: #fff"/>
      <path d="M435.79-44.34,432-35.41a3,3,0,0,0-.16,1l-1-.53a2.82,2.82,0,0,0,.73-1l3.67-8.61Z" transform="translate(-425.26 55.3)" style="fill: #fff"/>
      <path d="M436.16-44.52a.1.1,0,0,1-.14,0l-.75-.41a.1.1,0,0,1,0-.14.1.1,0,0,1,.14,0l.75.41a.1.1,0,0,1,0,.14" transform="translate(-425.26 55.3)" style="fill: #fff"/>
      <path d="M437.26-47.15l-1,2a.08.08,0,0,1-.11,0,.08.08,0,0,1-.05-.11l1-2a.08.08,0,0,1,.11,0,.08.08,0,0,1,0,.11m1.1.6s-.14,0-.27,0-.23-.15-.21-.19l.15-.31-1.27-.65-1.23,2.52,1.27.65.14-.28s.14,0,.28,0,.22.15.21.19l-.14.29.31.16.59-1.22-.89-.46-.22.44s-.05,0-.1,0-.07-.05-.07-.07l.48-1s.05,0,.1,0,.08.05.07.07l-.18.37.89.46.56-1.14-.3-.15Z" transform="translate(-425.26 55.3)" style="fill: #fff"/>
      <path d="M437.65-47.67a.1.1,0,0,1-.14,0l-.76-.39a.1.1,0,0,1,0-.14.1.1,0,0,1,.14,0l.76.39a.1.1,0,0,1,0,.14" transform="translate(-425.26 55.3)" style="fill: #fff"/>
      <path d="M437.52-48.35a.17.17,0,0,0,0-.06.18.18,0,0,0-.16-.19.18.18,0,0,0-.17.09.1.1,0,0,0-.13,0,.1.1,0,0,0,0,.14l.29.15a.1.1,0,0,0,.14,0,.1.1,0,0,0,0-.13" transform="translate(-425.26 55.3)" style="fill: #fff"/>
      <path d="M437.23-34.52s-2.29-4.58-2.91-5.7l-.36.87c.71,1.28.78,1.31,2.82,5.1v0a.14.14,0,0,0,.2,0l.19-.13a.14.14,0,0,0,.05-.17Z" transform="translate(-425.26 55.3)" style="fill: #fff"/>
      <path d="M437.7-34.19c.06.08,0,.22-.12.31l-.34.23c-.12.08-.27.08-.33,0s0-.22.11-.31l.34-.23c.12-.08.27-.08.33,0" transform="translate(-425.26 55.3)" style="fill: #fff"/>
      <path d="M437.75-33.72s.61,1.38.69,1.57c0,0-.77-.95-1.11-1.29Z" transform="translate(-425.26 55.3)" style="fill: #fff"/>
      <path d="M431.29-32.28a.5.5,0,0,1-.3-.1.8.8,0,0,1-.21.09.51.51,0,0,1-.5.41.51.51,0,0,1-.51-.51.51.51,0,0,1,.11-.31.81.81,0,0,1-.07-.18.51.51,0,0,1-.45-.5.51.51,0,0,1,.51-.51.5.5,0,0,1,.33.12l.15-.06a.51.51,0,0,1,.51-.47.51.51,0,0,1,.51.51.51.51,0,0,1-.1.31.78.78,0,0,1,.09.2.51.51,0,0,1,.45.5.51.51,0,0,1-.51.51m.75-.79a1.49,1.49,0,0,0-.22-.74l0-.37-1.15-.62-.42.32-.13,0a1.51,1.51,0,0,0-.62.35.49.49,0,0,0-.24-.07.49.49,0,0,0-.49.49.49.49,0,0,0,.28.44,1.47,1.47,0,0,0,0,.22,1.49,1.49,0,0,0,.51,1.13.51.51,0,0,0,0,.2.49.49,0,0,0,.49.49.49.49,0,0,0,.46-.32h.07a1.49,1.49,0,0,0,1.2-.61l.14,0a.49.49,0,0,0,.49-.49.49.49,0,0,0-.35-.47" transform="translate(-425.26 55.3)" style="fill: #fff"/>
      <path d="M435.78-34.68l-.72,1.9s.12,1.45-.46,1.74c0,0,0,.14.69.14s.8-.82.81-1a.57.57,0,0,1-.22.1,2.82,2.82,0,0,0,.33-.86.89.89,0,0,1-.37.21,2.19,2.19,0,0,0,.26-.91l-.22.08a2,2,0,0,0,.08-.89.87.87,0,0,1-.15.13,4,4,0,0,0,0-.6" transform="translate(-425.26 55.3)" style="fill: #fff"/>
      <path d="M435.63-35.06l-.72,1.9s-.2.26-.26.32.12,1.28-.4,1.28c0,0-.11,0-.11-.11s.06-.91.06-.91l.22-.22s-.95-.17-1.32.09a.29.29,0,0,0,.21.21.64.64,0,0,1,0,.43,1.54,1.54,0,0,0-.27.76,1.05,1.05,0,0,0,.55.84c.29.2.53.34.46.45s-.19.34,0,.32.27-.1.27,0a1.87,1.87,0,0,0,.09.33c0,.14,0,.46-.22.46s-.51-.1-.56,0a.45.45,0,0,0-.06.26s0-.09.17-.09.39,0,.41,0,0,.08-.08.11-.19,0-.19.09,0,.21,0,.21a.21.21,0,0,1,.2-.13.47.47,0,0,0,.33-.1c.05,0,.08.2.27.25-.05-.13-.08-.34,0-.34s.25,0,.26,0,.17,0,.19.06.05-.23-.11-.28-.26,0-.28-.13a2.07,2.07,0,0,1,0-.43s.16-.15.16-.26.06-.16.14-.11.65.16.62.42a1.6,1.6,0,0,0,0,.36c0,.06.16.13.69.07a3.32,3.32,0,0,0,1-.28,3.31,3.31,0,0,1-1.13-.66,8.25,8.25,0,0,1-.79-.75c-.06-.06-.29,0-.34,0a1.7,1.7,0,0,1-.76-.38s-.2-.11.11-.26.56-.31.59-.68,0-.91.08-1l.72-1.9,0-.2" transform="translate(-425.26 55.3)" style="fill: #fff"/>
      <polyline points="9.96 20.34 9.23 22.2 9.35 22.25 10.01 20.54" style="fill: #fff"/>
      <line x1="10.01" y1="20.54" x2="9.97" y2="20.34" style="fill: #fff"/>
      <path d="M434.08-29.61a.78.78,0,0,1-.36.16,1.56,1.56,0,0,1-.32,0s0-.13-.13-.07a.23.23,0,0,0-.14.2s.11-.06.16,0,0,.09,0,.11-.08.07-.1.23a.29.29,0,0,1,.26-.19h.06s0,.14,0,.2c0-.11.05-.21.07-.22s.07,0,.14.05a.69.69,0,0,0,.25.1s-.06-.14-.09-.21.09-.12.15-.17,0-.12,0-.12" transform="translate(-425.26 55.3)" style="fill: #fff"/>
      <path d="M433.06-32.51a3.37,3.37,0,0,1-.39.45l0,.18a6.44,6.44,0,0,0,.39-.56Z" transform="translate(-425.26 55.3)" style="fill: #fff"/>
      <path d="M433.26-32.94h.09a15.76,15.76,0,0,0,.11-1.68,15.5,15.5,0,0,1-.19,1.69" transform="translate(-425.26 55.3)" style="fill: #fff"/>
      <path d="M430.34-41.94l.07,2.39a.46.46,0,0,0-.39,0c-.17.1-.68.4-.86.23V-41.5a.64.64,0,0,0,.43-.24c.21-.24.47-.39.74-.2" transform="translate(-425.26 55.3)" style="fill: #fff"/>
      <path d="M430.47-38.64c-.58,0-.53-.37-.53-.37h-1.11V-41.6h.37v-.17h-.56v2.93h1.14s0,.34.67.34" transform="translate(-425.26 55.3)" style="fill: #fff"/>
      <path d="M430.71-39.06c0,.08-.11.15-.24.15s-.24-.07-.24-.15.11-.15.24-.15.24.07.24.15" transform="translate(-425.26 55.3)" style="fill: #fff"/>
      <path d="M430.66-46.87a.32.32,0,0,1-.63,0,.32.32,0,0,1,.32-.32.32.32,0,0,1,.32.32" transform="translate(-425.26 55.3)" style="fill: #fff"/>
      <path d="M431.87-46.17a.24.24,0,0,1-.24.24.24.24,0,0,1-.24-.24.24.24,0,0,1,.24-.24.24.24,0,0,1,.24.24" transform="translate(-425.26 55.3)" style="fill: #fff"/>
      <path d="M431.78-47.85a.24.24,0,0,1-.24.24.24.24,0,0,1-.24-.24.24.24,0,0,1,.24-.24.24.24,0,0,1,.24.24" transform="translate(-425.26 55.3)" style="fill: #fff"/>
      <path d="M430.3-48.53a.24.24,0,0,1-.24.24.24.24,0,0,1-.24-.24.24.24,0,0,1,.24-.24.24.24,0,0,1,.24.24" transform="translate(-425.26 55.3)" style="fill: #fff"/>
      <path d="M429.14-47.83a.24.24,0,0,1-.24.24.24.24,0,0,1-.24-.24.24.24,0,0,1,.24-.24.24.24,0,0,1,.24.24" transform="translate(-425.26 55.3)" style="fill: #fff"/>
      <path d="M429-46.34a.24.24,0,0,1-.24.24.24.24,0,0,1-.24-.24.24.24,0,0,1,.24-.24.24.24,0,0,1,.24.24" transform="translate(-425.26 55.3)" style="fill: #fff"/>
      <path d="M433.46-34.63a.39.39,0,0,0,.19-.39c0-.31-.21-.52-.21-.59a1.36,1.36,0,0,0-.2.59c0,.14.14.39.22.39" transform="translate(-425.26 55.3)" style="fill: #fff"/>
      <path d="M433.45-34.22a.39.39,0,0,0,.43,0c.26-.17.32-.46.38-.5a1.37,1.37,0,0,0-.6.15c-.1.09-.25.32-.21.4" transform="translate(-425.26 55.3)" style="fill: #fff"/>
      <path d="M433.38-33.59a.39.39,0,0,0,.41.14c.3,0,.48-.28.56-.29a1.36,1.36,0,0,0-.61-.13c-.13,0-.37.18-.36.27" transform="translate(-425.26 55.3)" style="fill: #fff"/>
      <path d="M433.37-33.57a.39.39,0,0,0-.23-.37c-.26-.16-.55-.09-.62-.13s.27.42.39.48.4.09.45,0" transform="translate(-425.26 55.3)" style="fill: #fff"/>
      <path d="M433.44-34.24a.39.39,0,0,0-.22-.37c-.26-.17-.55-.1-.61-.14s.26.43.38.49.4.09.45,0" transform="translate(-425.26 55.3)" style="fill: #fff"/>
      <rect x="8.58" y="5.98" width="0.37" height="1.2" style="fill: #fff"/>
      <rect x="8.35" y="6.28" width="0.84" height="0.26" style="fill: #fff"/>
      <rect x="7.54" y="6.13" width="0.33" height="1.05" style="fill: #fff"/>
      <rect x="7.34" y="6.4" width="0.73" height="0.22" style="fill: #fff"/>
      <rect x="9.62" y="6.13" width="0.33" height="1.05" style="fill: #fff"/>
      <rect x="9.42" y="6.31" width="0.73" height="0.22" style="fill: #fff"/>
      <path d="M430.47-38.64c.58,0,.53-.37.53-.37h1.11V-41.6h-.37v-.17h.56v2.93h-1.14s0,.34-.67.34" transform="translate(-425.26 55.3)" style="fill: #fff"/>
      <path d="M430.6-41.94l-.07,2.39a.46.46,0,0,1,.39,0c.17.1.68.4.86.23V-41.5a.64.64,0,0,1-.43-.24c-.21-.24-.47-.39-.74-.2" transform="translate(-425.26 55.3)" style="fill: #fff"/>
      <path d="M436.9-41.94l.07,2.39a.46.46,0,0,0-.39,0c-.17.1-.68.4-.86.23V-41.5a.64.64,0,0,0,.43-.24c.21-.24.47-.39.74-.2" transform="translate(-425.26 55.3)" style="fill: #fff"/>
      <path d="M437-38.64c-.58,0-.53-.37-.53-.37h-1.11v-2.58h.37v-.17h-.56v2.93h1.14s0,.34.67.34" transform="translate(-425.26 55.3)" style="fill: #fff"/>
      <path d="M437.27-39.05c0,.08-.11.15-.24.15s-.24-.07-.24-.15.11-.15.24-.15.24.07.24.15" transform="translate(-425.26 55.3)" style="fill: #fff"/>
      <path d="M437-38.64c.58,0,.53-.37.53-.37h1.11v-2.58h-.37v-.17h.56v2.93h-1.14s0,.34-.67.34" transform="translate(-425.26 55.3)" style="fill: #fff"/>
      <path d="M437.17-41.94l-.07,2.39a.46.46,0,0,1,.39,0c.17.1.68.4.86.23V-41.5a.64.64,0,0,1-.43-.24c-.21-.24-.47-.39-.74-.2" transform="translate(-425.26 55.3)" style="fill: #fff"/>
      <path d="M430.17-45.2a.24.24,0,0,1-.24.24.24.24,0,0,1-.24-.24.24.24,0,0,1,.24-.24.24.24,0,0,1,.24.24" transform="translate(-425.26 55.3)" style="fill: #fff"/>
      <path d="M441.32-32.2l0,.39a7.17,7.17,0,0,1,.68-.29s-.07-.52.69-.76c0,0,.09,0,.09-.24a11.52,11.52,0,0,1,.29-2.72c.27-.54.5-.64.49-.81s-.14-.35,0-.61a10.23,10.23,0,0,1,.59-1.21,2.22,2.22,0,0,1-.17,1.1s-.06.19.33,0a13.28,13.28,0,0,1,2.36-.81c.19,0,.15-.22.14-.27s-.13-.43,0-.63.25-.37.29-.34-.06.29-.09.47a1.2,1.2,0,0,0,.28,1.08,8.08,8.08,0,0,0,1.41,1.18,2.05,2.05,0,0,1,1.11,2s.07,1.23-.22,1.56a1.83,1.83,0,0,0-.45.68c0,.12-.11.66-.11.79a4,4,0,0,1,.79-.48.4.4,0,0,1,.15-.37c.19-.11.38-.28.49-.27a10.08,10.08,0,0,1,.18-3.53.3.3,0,0,0-.16-.39c-.27-.14-.51-.53-.65-1.24a4.25,4.25,0,0,0-1.2-2.8s.17-.15.54.12c.19.14.21.33.34.56s0,.79.82,1c0,0,.18,0-.06-.39a7.55,7.55,0,0,1-.62-1.3c0-.18-.19-.56-.83-.49s-1.41.31-1.61.31-1-.12-1.39-.1-1.77.18-1.93-.42a2,2,0,0,1,0-1.35c.14-.24.24-.72.14-.81s-.12,0-.31-.11-1-.48-1-1.23c0,0-.07,0-.34.39a6,6,0,0,0-1,3.08,10.47,10.47,0,0,0,.34,1.42c0,.13.07.26,0,.26s-.16-.21-.26-.24a2.54,2.54,0,0,0,.24,1.51s0,0,.09-.35.39-1.31.72-1.39c0,0-.54.33-.47,1.61a6.9,6.9,0,0,0,.31,2s.07,1.37,0,1.68a4.34,4.34,0,0,1-.59,1.81,1.6,1.6,0,0,0-.55,1" transform="translate(-425.26 55.3)" style="fill: #fff"/>
      <path d="M441.49-40.27a7.35,7.35,0,0,0-.32-.82c-.06-.05-.11-.28-.3,0a3.34,3.34,0,0,0-.16,1.41c0,.35-.13,1.71-.15,2a.69.69,0,0,0,.21.64,3.6,3.6,0,0,1,.53.61,1.91,1.91,0,0,1,.06-.9.88.88,0,0,0,0-.8,9.86,9.86,0,0,1-.2-1.34c0-.11.07,0,.07,0s.19-.53.26-.78" transform="translate(-425.26 55.3)" style="fill: #fff"/>
      <path d="M447.09-37.71a10.22,10.22,0,0,1,1,.89c.06.13,0,.11.14.31s.43.24.39.36-.06.14-.34.34a9.7,9.7,0,0,0-1.61,1.45,3.18,3.18,0,0,1-.39.64.6.6,0,0,1-.42.1c-.11-.05-.08-.09-.2-.09s-.29.09-.34.08a.29.29,0,0,1,.07-.44,12.32,12.32,0,0,0,1.48-1.16c.17-.23.54-.63.49-.75a1.24,1.24,0,0,0-.43-.41,3.33,3.33,0,0,1-.77-.7.54.54,0,0,1,.16-.69c.34-.34.69,0,.79.05" transform="translate(-425.26 55.3)" style="fill: #fff"/>
      <path d="M444-45.15c0-.51.71-.06.71.19s-.71.33-.71-.19m-1.1-.21a.85.85,0,0,1-.77.1c-.37-.16-.46-.28-.33-.28s.4,0,.35-.07-.78-.44-.58-.45a12.77,12.77,0,0,1,1.38.52c.06.09.13.11,0,.18m2.89.87c-.25-.2-.17-.13-.56-1s-1.4-1-1.42-.55-.36.39-.58.43a5.83,5.83,0,0,0-1.55-.59,4,4,0,0,0-.65,0s0,.16.14.25.52.64.66.75.47.3,1.21,0h0a1.33,1.33,0,0,0,.68,1.24,2.25,2.25,0,0,0,1.23.14c.25,0,.41.23.64.23s.58-.14.62-.36-.17-.35-.41-.56" transform="translate(-425.26 55.3)" style="fill: #fff"/>
      <path d="M445.33-45.77a1.12,1.12,0,0,1,.67,0c.2.11.43,0,.54-.05s.14.09,0,.21-.46.5-.67.49-.39,0-.41-.09a.35.35,0,0,0-.1-.22c-.06,0-.15-.25,0-.29" transform="translate(-425.26 55.3)" style="fill: #fff"/>
      <path d="M441.84-31.9c.09.1-.09.34-.3.67a.66.66,0,0,1-.72.29,1,1,0,0,1,.33-1.27,3.54,3.54,0,0,0,.05.56" transform="translate(-425.26 55.3)" style="fill: #fff"/>
      <path d="M441.42-35.59a3.6,3.6,0,0,1-.77-1.38l.82.86a2,2,0,0,1,0-.91.87.87,0,0,0,.14-.36s.63,1.66.1,1.78c-.12,0-.19.1-.3,0" transform="translate(-425.26 55.3)" style="fill: #fff"/>
      <path d="M445.14-33.63s-.46.76.1.7.54,0,.67-.09a1.65,1.65,0,0,0,.27-.52.8.8,0,0,1-.54.09c-.25-.07-.54.13-.51-.19" transform="translate(-425.26 55.3)" style="fill: #fff"/>
      <path d="M449.81-31.87a8.57,8.57,0,0,0-.89.46,1.67,1.67,0,0,1,0-.7s-.38.78-.31,1,.38.24.6.21.43-.53.61-.93" transform="translate(-425.26 55.3)" style="fill: #fff"/>
      <path d="M443.57-46.11a.4.4,0,0,1-.55.24c-.42-.15-1.16-1.36-1.4-1.83,0,0-1.12-.67-.76-1.53,0,0,.27.65.54.68,0,0-.45-1.87-.11-2.18,0,0,.09.81.43.72s-.2-1.53.58-1.89c0,0-.16.83,0,1,0,0,.81-1,1.1-1a4.33,4.33,0,0,1-.67,1.51,3.23,3.23,0,0,0,.76-.36c0,.36,0,.58-.45.81s-1.33.76-1.19,1.48a1.72,1.72,0,0,0,.74,1.26.74.74,0,0,1,.13-.79,3.46,3.46,0,0,0,.9-1.46,2,2,0,0,1-.63,1.89s-.1,1.12,0,1.23a1.09,1.09,0,0,0,.53.11" transform="translate(-425.26 55.3)" style="fill: #fff"/>
      <path d="M446-47c-.13,0-.12.4-.4.68a.93.93,0,0,1-.6.24c-.24-.09.55-.78.63-1s-.16-.18-.27-.54a2.16,2.16,0,0,1,.08-.94c.08.18,0,.28.09.56s.3.17.37.23a6.07,6.07,0,0,0,0-.9,7.63,7.63,0,0,1-.6-1.95c.08,0,.17,0,.27.07a1.49,1.49,0,0,1,.31.47c0-.42-.06-1.3.06-1.33a5,5,0,0,1,.54,1.61,1,1,0,0,0,.42-.63c.14.2.28.5.14.69s-.49.56-.56.68-.24.25-.06.42a2.89,2.89,0,0,0,.75-.54,1.25,1.25,0,0,1-.29.54,2.59,2.59,0,0,0-.71,1.23,3.72,3.72,0,0,0,1-.67S447-46.91,446-47" transform="translate(-425.26 55.3)" style="fill: #fff"/>
    </g>
  </g>
  <path d="M425.77-13.5v-3.19h.85v3.18c0,.83.4,1.27,1.07,1.27s1.06-.42,1.06-1.24v-3.21h.85v3.16a1.82,1.82,0,0,1-1.92,2.08,1.81,1.81,0,0,1-1.91-2" transform="translate(-425.26 55.3)" style="fill: #bc9b6a"/>
  <polygon points="5.42 38.61 6.21 38.61 8.48 42.05 8.48 38.61 9.31 38.61 9.31 43.76 8.59 43.76 6.25 40.22 6.25 43.76 5.42 43.76 5.42 38.61" style="fill: #bc9b6a"/>
  <rect x="10.5" y="38.61" width="0.85" height="5.15" style="fill: #bc9b6a"/>
  <polygon points="12.12 38.61 13.05 38.61 14.32 42.5 15.58 38.61 16.48 38.61 14.7 43.79 13.91 43.79 12.12 38.61" style="fill: #bc9b6a"/>
  <polygon points="16.9 38.61 20.14 38.61 20.14 39.38 17.75 39.38 17.75 40.78 19.87 40.78 19.87 41.55 17.75 41.55 17.75 42.99 20.18 42.99 20.18 43.76 16.9 43.76 16.9 38.61" style="fill: #bc9b6a"/>
  <path d="M446.51-16.69h1.86a1.91,1.91,0,0,1,1.38.49,1.56,1.56,0,0,1,.43,1.13v0a1.51,1.51,0,0,1-1.07,1.51l1.21,2h-1l-1.1-1.82h-.88v1.82h-.85Zm1.77,2.57c.66,0,1-.35,1-.89h0c0-.58-.38-.88-1-.88h-.93v1.79Z" transform="translate(-425.26 55.3)" style="fill: #bc9b6a"/>
  <path d="M450.74-12.22l.52-.64a2,2,0,0,0,1.35.61c.49,0,.81-.27.81-.66h0c0-.32-.17-.54-1-.84-1-.37-1.49-.73-1.49-1.55h0a1.48,1.48,0,0,1,1.63-1.44,2.39,2.39,0,0,1,1.62.6l-.49.65a1.88,1.88,0,0,0-1.16-.49c-.46,0-.75.26-.75.6h0c0,.36.19.55,1.07.89s1.4.77,1.4,1.52h0a1.51,1.51,0,0,1-1.67,1.49,2.69,2.69,0,0,1-1.86-.74" transform="translate(-425.26 55.3)" style="fill: #bc9b6a"/>
  <rect x="29.78" y="38.61" width="0.85" height="5.15" style="fill: #bc9b6a"/>
  <polygon points="32.5 39.41 31.15 39.41 31.15 38.61 34.71 38.61 34.71 39.41 33.36 39.41 33.36 43.76 32.5 43.76 32.5 39.41" style="fill: #bc9b6a"/>
  <polygon points="36.59 41.71 34.86 38.61 35.84 38.61 37.03 40.84 38.23 38.61 39.18 38.61 37.45 41.7 37.45 43.76 36.59 43.76 36.59 41.71" style="fill: #bc9b6a"/>
  <path d="M466-14.07v-.07a2.38,2.38,0,0,1,2.29-2.63,2.36,2.36,0,0,1,2.27,2.61v.07a2.38,2.38,0,0,1-2.29,2.63A2.36,2.36,0,0,1,466-14.07m3.68,0v-.05c0-1.1-.59-1.85-1.41-1.85s-1.39.73-1.39,1.84v.05c0,1.1.6,1.85,1.41,1.85s1.39-.73,1.39-1.84" transform="translate(-425.26 55.3)" style="fill: #bc9b6a"/>
  <polygon points="45.98 38.61 49.21 38.61 49.21 39.4 46.83 39.4 46.83 40.85 48.93 40.85 48.93 41.63 46.83 41.63 46.83 43.76 45.98 43.76 45.98 38.61" style="fill: #bc9b6a"/>
  <polygon points="52.33 39.41 50.98 39.41 50.98 38.61 54.54 38.61 54.54 39.41 53.19 39.41 53.19 43.76 52.33 43.76 52.33 39.41" style="fill: #bc9b6a"/>
  <path d="M480-14.07v-.07a2.38,2.38,0,0,1,2.29-2.63,2.36,2.36,0,0,1,2.27,2.61v.07a2.38,2.38,0,0,1-2.29,2.63A2.36,2.36,0,0,1,480-14.07m3.68,0v-.05c0-1.1-.59-1.85-1.41-1.85s-1.39.73-1.39,1.84v.05c0,1.1.6,1.85,1.41,1.85s1.39-.73,1.39-1.84" transform="translate(-425.26 55.3)" style="fill: #bc9b6a"/>
  <path d="M485.54-16.69h1.86a1.9,1.9,0,0,1,1.38.49,1.56,1.56,0,0,1,.43,1.13v0a1.51,1.51,0,0,1-1.07,1.51l1.21,2h-1l-1.1-1.82h-.88v1.82h-.85Zm1.77,2.57c.66,0,1-.35,1-.89h0c0-.58-.38-.88-1-.88h-.93v1.79Z" transform="translate(-425.26 55.3)" style="fill: #bc9b6a"/>
  <path d="M490-14.07v-.07a2.38,2.38,0,0,1,2.29-2.63,2.36,2.36,0,0,1,2.27,2.61v.07a2.38,2.38,0,0,1-2.29,2.63A2.36,2.36,0,0,1,490-14.07m3.68,0v-.05c0-1.1-.59-1.85-1.41-1.85s-1.39.73-1.39,1.84v.05c0,1.1.6,1.85,1.41,1.85s1.39-.73,1.39-1.84" transform="translate(-425.26 55.3)" style="fill: #bc9b6a"/>
  <polygon points="70.22 38.61 71.02 38.61 73.28 42.05 73.28 38.61 74.12 38.61 74.12 43.76 73.4 43.76 71.06 40.22 71.06 43.76 70.22 43.76 70.22 38.61" style="fill: #bc9b6a"/>
  <polygon points="76.27 39.41 74.91 39.41 74.91 38.61 78.47 38.61 78.47 39.41 77.12 39.41 77.12 43.76 76.27 43.76 76.27 39.41" style="fill: #bc9b6a"/>
  <path d="M504-14.07v-.07a2.38,2.38,0,0,1,2.29-2.63,2.36,2.36,0,0,1,2.27,2.61v.07a2.38,2.38,0,0,1-2.29,2.63A2.36,2.36,0,0,1,504-14.07m3.68,0v-.05c0-1.1-.59-1.85-1.41-1.85s-1.39.73-1.39,1.84v.05c0,1.1.6,1.85,1.41,1.85s1.39-.73,1.39-1.84" transform="translate(-425.26 55.3)" style="fill: #bc9b6a"/>
  <path d="M458.6-29.84v-.11c0-3.78,2.35-6.38,5.47-6.38a5.2,5.2,0,0,1,3.8,1.53l-.82,1a4.21,4.21,0,0,0-3-1.3c-2.3,0-4.07,2.1-4.07,5.12v.07c0,3.07,1.77,5.15,4.07,5.15a4.23,4.23,0,0,0,3.09-1.39l.8.93a5.34,5.34,0,0,1-4,1.71c-3.08,0-5.38-2.55-5.38-6.35" transform="translate(-425.26 55.3)" style="fill: #1e3c8d"/>
  <path d="M468.11-28.24v-.12c0-2.71,1.75-4.78,4.14-4.78s4.12,2.05,4.12,4.76v.11c0,2.71-1.75,4.8-4.14,4.8s-4.12-2.05-4.12-4.76m7,0v-.09c0-2.09-1.25-3.64-2.83-3.64s-2.8,1.55-2.8,3.62v.09c0,2.09,1.23,3.64,2.82,3.64s2.82-1.57,2.82-3.62" transform="translate(-425.26 55.3)" style="fill: #1e3c8d"/>
  <rect x="52.26" y="18.76" width="1.28" height="12.87" style="fill: #1e3c8d"/>
  <rect x="55.64" y="18.76" width="1.28" height="12.87" style="fill: #1e3c8d"/>
  <path d="M483.37-28.24v-.09c0-2.83,1.66-4.81,3.83-4.81,2.34,0,3.73,2,3.73,4.8,0,.12,0,.37,0,.54h-6.24c.14,2.05,1.41,3.19,2.87,3.19a3.27,3.27,0,0,0,2.41-1.07l.73.82a4.2,4.2,0,0,1-3.19,1.39c-2.26,0-4.12-1.82-4.12-4.76m6.28-.57c-.09-1.77-.93-3.21-2.44-3.21s-2.41,1.27-2.53,3.21Z" transform="translate(-425.26 55.3)" style="fill: #1e3c8d"/>
  <path d="M492.19-22l.52-1a5.53,5.53,0,0,0,3,.91,2.54,2.54,0,0,0,2.83-2.78v-1.36a3.54,3.54,0,0,1-3.07,1.91c-1.89,0-3.66-1.57-3.66-4.37v-.07c0-2.8,1.78-4.39,3.67-4.39a3.53,3.53,0,0,1,3,1.84V-33h1.28v8.06a3.88,3.88,0,0,1-1,2.87A4.21,4.21,0,0,1,495.72-21a6.58,6.58,0,0,1-3.53-1m6.38-6.74v-.05a3,3,0,0,0-2.8-3.23c-1.46,0-2.64,1.19-2.64,3.23v0c0,2,1.19,3.25,2.64,3.25a3,3,0,0,0,2.8-3.23" transform="translate(-425.26 55.3)" style="fill: #1e3c8d"/>
  <path d="M500.89-28.24v-.09c0-2.83,1.66-4.81,3.83-4.81,2.34,0,3.73,2,3.73,4.8,0,.12,0,.37,0,.54h-6.24c.14,2.05,1.41,3.19,2.87,3.19a3.27,3.27,0,0,0,2.41-1.07l.73.82A4.2,4.2,0,0,1,505-23.47c-2.26,0-4.12-1.82-4.12-4.76m6.28-.57c-.09-1.77-.93-3.21-2.44-3.21s-2.41,1.27-2.53,3.21Z" transform="translate(-425.26 55.3)" style="fill: #1e3c8d"/>
  <polygon points="36.63 4.12 33.14 4.12 33.14 2.88 41.48 2.88 41.48 4.12 37.97 4.12 37.97 15.36 36.63 15.36 36.63 4.12" style="fill: #1e3c8d"/>
  <path d="M466.68-49.23H468v2.05a3.28,3.28,0,0,1,3.19-2.18V-48h-.07c-1.73,0-3.12,1.21-3.12,3.6v4.42h-1.28Z" transform="translate(-425.26 55.3)" style="fill: #1e3c8d"/>
  <path d="M472.26-52.66h1.43v1.52h-1.43Zm.07,3.42h1.28v9.29h-1.28Z" transform="translate(-425.26 55.3)" style="fill: #1e3c8d"/>
  <path d="M475.61-49.23h1.28v1.52a3,3,0,0,1,2.75-1.69c1.89,0,3,1.3,3,3.39v6.08h-1.28v-5.72c0-1.66-.78-2.59-2.14-2.59a2.41,2.41,0,0,0-2.35,2.66v5.65h-1.28Z" transform="translate(-425.26 55.3)" style="fill: #1e3c8d"/>
  <path d="M484.43-52.66h1.43v1.52h-1.43Zm.07,3.42h1.28v9.29H484.5Z" transform="translate(-425.26 55.3)" style="fill: #1e3c8d"/>
  <path d="M488.22-42.1v-6H487.1v-1.14h1.12v-2.71h1.28v2.71h2.43v1.14h-2.43v5.78A1.18,1.18,0,0,0,490.84-41a2.75,2.75,0,0,0,1.09-.25v1.11a3.13,3.13,0,0,1-1.39.32,2.08,2.08,0,0,1-2.32-2.3" transform="translate(-425.26 55.3)" style="fill: #1e3c8d"/>
  <path d="M499.25-49.23h1.37l-3.3,9.45c-.66,1.93-1.46,2.59-2.71,2.59a3.5,3.5,0,0,1-1.68-.43l.39-1.07a2.47,2.47,0,0,0,1.21.34c.69,0,1.14-.39,1.6-1.59l-3.57-9.29H494l2.78,7.65Z" transform="translate(-425.26 55.3)" style="fill: #1e3c8d"/>
</svg>
